<svg version="1.1" viewBox="0.0 0.0 624.0 768.0" fill="none" stroke="none" stroke-linecap="square" stroke-miterlimit="10" xmlns:xlink="http://www.w3.org/1999/xlink" xmlns="http://www.w3.org/2000/svg"><clipPath id="p.0"><path d="m0 0l624.0 0l0 768.0l-624.0 0l0 -768.0z" clip-rule="nonzero"/></clipPath><g clip-path="url(#p.0)"><path fill="#00B5BE" fill-opacity="0.0" d="m0 0l624.0 0l0 768.0l-624.0 0z" fill-rule="evenodd"/><path fill="#00B5BE" fill-opacity="0.0" d="m134.92078 313.43228l350.55118 0l0 341.6063l-350.55118 0z" fill-rule="evenodd"/><path fill="#00B5BE" d="m471.26453 390.70602q0 29.6875 -19.296875 62.125q-19.28125 32.421875 -53.25 56.484375q-33.953125 24.06247 -70.140625 30.203094q-20.8125 41.984375 -30.03125 58.71875l-7.171875 11.59375q67.59375 16.734375 111.953125 50.859375q22.53125 17.40625 30.390625 42.671875q4.09375 12.96875 4.09375 22.1875q0 9.21875 -3.59375 15.53125q-3.578125 6.3125 -8.359375 8.703125q-4.78125 2.390625 -6.828125 2.390625q-2.046875 0 -2.046875 -1.71875q0 -1.703125 3.921875 -10.0625q3.9375 -8.359375 3.9375 -19.625q0 -11.265625 -4.78125 -24.921875q-4.78125 -13.65625 -17.75 -25.09375q-12.96875 -11.421875 -36.015625 -21.484375q-23.03125 -10.078125 -39.9375 -14.34375q-16.890625 -4.265625 -45.21875 -9.734375q-29.015625 40.625 -60.421875 55.640625q-18.765625 9.21875 -33.28125 9.21875q-14.5 0 -25.765625 -5.796875q-19.453125 -9.5625 -19.453125 -29.015625q0 -19.453125 25.59375 -34.140625q29.015625 -17.0625 78.515625 -17.0625q17.75 0 32.078125 2.734375q15.359375 -23.890625 35.84375 -65.875q-2.046875 0 -3.75 0q-21.515625 0 -39.953125 -7.171875q-18.421875 -7.171875 -29.34375 -19.453125q-14.34375 -16.046844 -14.34375 -36.18747q0 -10.578125 5.296875 -22.859375q5.296875 -12.296875 23.546875 -24.921875q18.265625 -12.625 46.25 -19.125q4.4375 -1.015625 7.515625 -1.015625q3.078125 0 3.75 1.703125q0.6875 1.703125 -2.734375 3.078125q-3.40625 1.359375 -7.84375 2.046875q-14.671875 1.703125 -27.3125 9.890625q-21.84375 14.0 -30.375 43.015625q-2.046875 6.828125 -2.046875 13.140625q0 6.3125 2.390625 15.1875q2.390625 8.875 10.234375 18.265594q7.859375 9.375 21.34375 13.140625q13.484375 3.75 23.546875 3.75q10.078125 0 18.609375 -1.03125l29.0 -73.03122q30.046875 -77.140625 71.6875 -94.890625q10.921875 -4.4375 21.328125 -4.4375q10.421875 0 19.796875 6.65625q9.390625 6.65625 10.078125 16.203125q0.34375 4.109375 0.34375 7.859375zm-14.34375 0.34375q0 -12.96875 -11.953125 -12.96875q-17.40625 0 -42.3125 30.375q-19.453125 24.234375 -37.375 58.546875q-17.921875 34.296875 -31.921875 63.296844q47.453125 -10.578125 85.5 -52.046844q38.0625 -41.46875 38.0625 -87.203125zm-189.09375 232.09372q-16.734375 -3.75 -34.484375 -3.75q-17.734375 0 -36.515625 5.125q-39.25 10.234375 -46.078125 29.0q-1.359375 3.421875 -1.359375 6.5q0 8.859375 9.71875 14.484375q9.734375 5.640625 21.34375 5.640625q16.03125 0 34.8125 -8.875q28.328125 -13.640625 52.5625 -48.125z" fill-rule="nonzero"/><path fill="#00B5BE" fill-opacity="0.0" d="m239.65082 174.17935c-81.138336 24.65036 -144.19891 88.92105 -167.389 170.60117c-23.19009 81.680084 -3.3285522 169.56494 52.720787 233.28296l187.01996 -165.01071z" fill-rule="evenodd"/><path fill="#00B5BE" fill-opacity="0.0" d="m239.65082 174.17935c-81.138336 24.65036 -144.19891 88.92105 -167.389 170.60117c-23.19009 81.680084 -3.3285522 169.56494 52.720787 233.28296" fill-rule="evenodd"/><path stroke="#00B5BE" stroke-width="12.0" stroke-linejoin="round" stroke-linecap="butt" d="m211.81943 184.48024l-1.7055206 0.7568207c-9.53479 4.2760468 -18.744568 9.127792 -27.586761 14.511826c-17.684341 10.768097 -33.898315 23.665405 -48.301422 38.34491c-28.806198 29.358963 -50.36886 65.846664 -61.963905 106.68672c-23.19009 81.680084 -3.3285446 169.56494 52.720787 233.28296" fill-rule="evenodd"/><path fill="#00B5BE" stroke="#00B5BE" stroke-width="12.0" stroke-linecap="butt" d="m211.81943 184.48024l-4.1016846 8.921967l15.480957 -13.133652l-20.301254 0.11000061z" fill-rule="evenodd"/><path fill="#00B5BE" fill-opacity="0.0" d="m384.35132 174.17883c81.138336 24.65036 144.19891 88.92105 167.38904 170.60117c23.190063 81.680084 3.3284912 169.56497 -52.720825 233.28299l-187.01996 -165.01074z" fill-rule="evenodd"/><path fill="#00B5BE" fill-opacity="0.0" d="m384.35132 174.17883c81.138336 24.65036 144.19891 88.92105 167.38904 170.60117c23.190063 81.680084 3.3284912 169.56497 -52.720825 233.28299" fill-rule="evenodd"/><path stroke="#00B5BE" stroke-width="12.0" stroke-linejoin="round" stroke-linecap="butt" d="m412.18274 184.47972l1.7055054 0.7568054c9.534821 4.276062 18.744598 9.127792 27.586731 14.511826c17.684357 10.768112 33.898346 23.66542 48.301422 38.34491c28.806183 29.358978 50.368866 65.84668 61.963898 106.68671c23.190125 81.680084 3.3285522 169.56494 -52.720764 233.28302" fill-rule="evenodd"/><path fill="#00B5BE" stroke="#00B5BE" stroke-width="12.0" stroke-linecap="butt" d="m412.18274 184.47972l8.921967 -4.1016846l-20.301239 -0.10998535l15.480957 13.133636z" fill-rule="evenodd"/><path fill="#00B5BE" d="m320.22043 69.60349l0 0c0 31.232353 -3.68042 56.551186 -8.220459 56.551186l0 0c-2.1802063 0 -4.271118 -5.9580536 -5.8127747 -16.563461c-1.541626 -10.6054 -2.4077148 -24.989418 -2.4077148 -39.987724l0 0c0 -31.232353 3.6804504 -56.551178 8.2204895 -56.551178l0 0c2.1802063 0 4.2710876 5.9580526 5.812744 16.563457c1.541626 10.605406 2.4077148 24.98942 2.4077148 39.987724z" fill-rule="evenodd"/><path stroke="#00B5BE" stroke-width="1.0" stroke-linejoin="round" stroke-linecap="butt" d="m320.22043 69.60349l0 0c0 31.232353 -3.68042 56.551186 -8.220459 56.551186l0 0c-2.1802063 0 -4.271118 -5.9580536 -5.8127747 -16.563461c-1.541626 -10.6054 -2.4077148 -24.989418 -2.4077148 -39.987724l0 0c0 -31.232353 3.6804504 -56.551178 8.2204895 -56.551178l0 0c2.1802063 0 4.2710876 5.9580526 5.812744 16.563457c1.541626 10.605406 2.4077148 24.98942 2.4077148 39.987724z" fill-rule="evenodd"/><path fill="#00B5BE" d="m575.27277 177.76064l0 0c-22.082703 22.082687 -42.585938 37.38257 -45.795288 34.173233l0 0c-1.5411987 -1.5411835 1.1933594 -7.2318573 7.602112 -15.820129c6.4086914 -8.588287 15.966614 -19.370667 26.571106 -29.975159l0 0c22.082703 -22.082687 42.585938 -37.382553 45.795288 -34.173218l0 0c1.5411377 1.5411835 -1.1934204 7.231842 -7.602112 15.820129c-6.4087524 8.588272 -15.966675 19.370667 -26.571106 29.975143z" fill-rule="evenodd"/><path stroke="#00B5BE" stroke-width="1.0" stroke-linejoin="round" stroke-linecap="butt" d="m575.27277 177.76064l0 0c-22.082703 22.082687 -42.585938 37.38257 -45.795288 34.173233l0 0c-1.5411987 -1.5411835 1.1933594 -7.2318573 7.602112 -15.820129c6.4086914 -8.588287 15.966614 -19.370667 26.571106 -29.975159l0 0c22.082703 -22.082687 42.585938 -37.382553 45.795288 -34.173218l0 0c1.5411377 1.5411835 -1.1934204 7.231842 -7.602112 15.820129c-6.4087524 8.588272 -15.966675 19.370667 -26.571106 29.975143z" fill-rule="evenodd"/><path fill="#00B5BE" d="m60.348858 166.13858l0 0c22.082691 22.082703 37.382565 42.585938 34.17323 45.795288l0 0c-1.5411835 1.5411682 -7.2318497 -1.1933899 -15.820129 -7.602112c-8.58828 -6.408722 -19.370663 -15.966644 -29.975147 -26.571121l0 0c-22.082693 -22.082687 -37.38257 -42.585938 -34.17323 -45.795273l0 0c1.5411787 -1.5411835 7.2318506 1.1933746 15.82013 7.6020966c8.588282 6.408722 19.37066 15.966644 29.975145 26.571121z" fill-rule="evenodd"/><path stroke="#00B5BE" stroke-width="1.0" stroke-linejoin="round" stroke-linecap="butt" d="m60.348858 166.13858l0 0c22.082691 22.082703 37.382565 42.585938 34.17323 45.795288l0 0c-1.5411835 1.5411682 -7.2318497 -1.1933899 -15.820129 -7.602112c-8.58828 -6.408722 -19.370663 -15.966644 -29.975147 -26.571121l0 0c-22.082693 -22.082687 -37.38257 -42.585938 -34.17323 -45.795273l0 0c1.5411787 -1.5411835 7.2318506 1.1933746 15.82013 7.6020966c8.588282 6.408722 19.37066 15.966644 29.975145 26.571121z" fill-rule="evenodd"/></g></svg>